<svg xmlns="http://www.w3.org/2000/svg" width="24" height="24" viewBox="0 0 24 24">
    <g fill="none" fill-rule="evenodd">
        <g>
            <g>
                <path fill="#CA261A" stroke="#CA261A" stroke-linecap="round" stroke-linejoin="round" d="M23.5 12c0 6.351-5.149 11.5-11.5 11.5S.5 18.351.5 12 5.649.5 12 .5 23.5 5.649 23.5 12z" transform="translate(-136 -1980) translate(136 1980)"/>
                <path stroke="#FFF" stroke-linecap="round" stroke-linejoin="round" d="M12 13.455L12 7.455" transform="translate(-136 -1980) translate(136 1980)"/>
                <path fill="#FFF" d="M11.3 16.345c0-.387.314-.7.7-.7.387 0 .7.313.7.7 0 .387-.313.7-.7.7-.386 0-.7-.313-.7-.7" transform="translate(-136 -1980) translate(136 1980)"/>
            </g>
        </g>
    </g>
</svg>
